<?xml version="1.0" standalone="no"?><!DOCTYPE svg PUBLIC "-//W3C//DTD SVG 1.1//EN" "http://www.w3.org/Graphics/SVG/1.1/DTD/svg11.dtd"><svg t="1741492457845" class="icon" viewBox="0 0 1024 1024" version="1.1" xmlns="http://www.w3.org/2000/svg" p-id="8893" xmlns:xlink="http://www.w3.org/1999/xlink" width="64" height="64"><path d="M138.459429 203.264l65.024 65.024a393.142857 393.142857 0 0 0 552.228571 552.228571l65.097143 64.950858a484.571429 484.571429 0 0 1-682.276572-682.276572zM631.222857 48.274286c12.288 0 34.011429 3.730286 43.081143 6.948571a484.717714 484.717714 0 0 1 211.163429 765.44l-65.024-64.950857a393.289143 393.289143 0 0 0-143.725715-600.868571l0.219429 358.692571a168.886857 168.886857 0 0 1-21.284572 77.312L431.542857 366.884571A163.84 163.84 0 0 1 512 345.965714c26.477714 0 51.419429 6.217143 73.581714 17.334857l0.219429-233.179428-0.292572-34.157714v-1.901715c0-25.234286 20.48-45.714286 45.714286-45.714285zM367.323429 432.054857l223.158857 223.158857a164.571429 164.571429 0 0 1-223.085715-223.232z m41.398857-349.184a45.714286 45.714286 0 0 1-27.794286 58.368c-41.472 14.628571-79.433143 35.84-112.786286 62.244572l-64.950857-65.024A483.620571 483.620571 0 0 1 350.354286 55.076571a45.714286 45.714286 0 0 1 58.294857 27.794286z" p-id="8894"></path><path d="M253.659429 101.083429l668.452571 668.598857c-16.530286 26.112-35.401143 50.468571-56.466286 72.850285L180.662857 157.622857c22.454857-21.065143 46.811429-40.009143 72.996572-56.539428z" p-id="8895"></path></svg>