<?xml version="1.0" standalone="no"?><!DOCTYPE svg PUBLIC "-//W3C//DTD SVG 1.1//EN" "http://www.w3.org/Graphics/SVG/1.1/DTD/svg11.dtd"><svg t="1741492478768" class="icon" viewBox="0 0 1024 1024" version="1.1" xmlns="http://www.w3.org/2000/svg" p-id="9978" xmlns:xlink="http://www.w3.org/1999/xlink" width="64" height="64"><path d="M631.222857 48.347429c12.288 0 34.011429 3.730286 43.081143 6.948571A484.717714 484.717714 0 0 1 512 996.571429 484.571429 484.571429 0 0 1 350.354286 55.003429a45.714286 45.714286 0 0 1 30.500571 86.235428A393.289143 393.289143 0 0 0 512 905.142857 393.142857 393.142857 0 0 0 676.790857 154.916571l0.146286 358.692572A165.229714 165.229714 0 0 1 512 675.108571a164.571429 164.571429 0 1 1 73.581714-311.808l0.219429-233.179428-0.292572-34.157714v-1.901715c0-25.234286 20.48-45.714286 45.714286-45.714285z" p-id="9979"></path></svg>